<svg width="40" height="40" viewBox="0 0 40 40" fill="none" xmlns="http://www.w3.org/2000/svg">
<g clip-path="url(#clip0_2125_5803)">
<path d="M13.6003 7.08556H18.8259C19.284 -2.20844 9.63379 -1.22322 9.41968 3.55858C9.41983 5.50652 11.2914 7.08556 13.6003 7.08556Z" fill="#2DB155"/>
<path d="M26.3998 7.08566C28.7087 7.08566 30.5803 5.50654 30.5803 3.55868C30.3682 -1.22046 20.717 -2.21147 21.1742 7.08566H26.3998Z" fill="#2DB155"/>
<path d="M27.0535 34.3996L20 30.8729L12.9465 34.3996V28.2442H2.36621V40H37.6337V28.2442H27.0535V34.3996Z" fill="#2DB155"/>
<path d="M27.0535 18.8415H37.6337V21.1908H27.0535V18.8415Z" fill="#2DB155"/>
<path d="M27.0535 23.5419H37.6337V25.893H27.0535V23.5419Z" fill="#2DB155"/>
<path d="M2.36621 18.8415H12.9465V21.1908H2.36621V18.8415Z" fill="#2DB155"/>
<path d="M2.36621 23.5419H12.9465V25.893H2.36621V23.5419Z" fill="#2DB155"/>
<path d="M27.0535 9.43671V16.4902H39.9849V9.43671H27.0535Z" fill="#2DB155"/>
<path d="M12.9466 16.4902V9.43671H0.0151367V16.4902H12.9466Z" fill="#2DB155"/>
<path d="M15.2976 30.5953L19.9999 28.2442L24.7023 30.5953V9.43671H15.2976V30.5953Z" fill="#2DB155"/>
</g>
<defs>
<clipPath id="clip0_2125_5803">
<rect width="40" height="40" fill="white"/>
</clipPath>
</defs>
</svg>
