<svg width="40" height="40" viewBox="0 0 40 40" fill="none" xmlns="http://www.w3.org/2000/svg">
<g clip-path="url(#clip0_2125_5941)">
<path d="M24.2886 28.7383C24.3142 24.2699 28.0068 20.6879 32.4752 20.6879H37.979V18.2472C37.979 17.6761 37.516 17.2133 36.945 17.2133H0V38.4056C0 39.2848 0.712734 39.9976 1.59195 39.9976H36.3871C37.2663 39.9976 37.9791 39.2848 37.9791 38.4056V36.8833H32.3862C27.9053 36.8833 24.2628 33.225 24.2886 28.7383Z" fill="white"/>
<path d="M38.9659 23.1H32.4343C29.3041 23.1 26.7069 25.5995 26.6765 28.7295C26.6459 31.8901 29.2081 34.4711 32.3617 34.4711H38.9658C39.5369 34.4711 39.9998 34.0081 39.9998 33.4371V24.1341C39.9999 23.563 39.5369 23.1 38.9659 23.1ZM31.0301 29.9602C30.364 29.9602 29.824 29.4202 29.824 28.7541C29.824 28.088 30.364 27.548 31.0301 27.548C31.6962 27.548 32.2362 28.088 32.2362 28.7541C32.2362 29.4202 31.6962 29.9602 31.0301 29.9602Z" fill="white"/>
<path d="M24.6836 0.00341797C28.197 2.45107 30.5011 6.51951 30.5011 11.1166C30.5011 12.3581 30.3287 13.6122 29.9987 14.8012H35.1286C35.5116 13.6652 35.7213 12.3687 35.7213 11.1166C35.7214 5.01373 30.7769 0.044668 24.6836 0.00341797Z" fill="white"/>
<path d="M16.9646 0.00241089C10.8363 0.00241089 5.85059 4.98819 5.85059 11.1166C5.85059 12.3778 6.06316 13.6159 6.48238 14.8011H9.69402C9.12777 13.7023 8.83332 12.4987 8.83332 11.2494C8.83332 6.83944 12.4211 3.25179 16.8309 3.25179C21.2408 3.25179 24.8285 6.83944 24.8285 11.2494C24.8285 12.5011 24.539 13.7048 23.9825 14.8011H27.4629C27.8661 13.6384 28.0787 12.3708 28.0787 11.1166C28.0788 4.98819 23.093 0.00241089 16.9646 0.00241089Z" fill="white"/>
<path d="M21.158 14.7246C21.9749 13.721 22.4067 12.5192 22.4067 11.2495C22.4067 8.175 19.9055 5.67383 16.8311 5.67383C13.7566 5.67383 11.2554 8.175 11.2554 11.2495C11.2554 12.5285 11.6829 13.6959 12.5262 14.7188C12.5482 14.7455 12.568 14.7732 12.5874 14.8012H21.1019C21.1197 14.7752 21.1378 14.7495 21.158 14.7246Z" fill="white"/>
<path d="M3.43227 11.4241H2.83922C1.27148 11.423 0 12.6936 0 14.2612V14.8011H3.94195C3.62922 13.7026 3.45812 12.572 3.43227 11.4241Z" fill="white"/>
</g>
<defs>
<clipPath id="clip0_2125_5941">
<rect width="40" height="40" fill="white"/>
</clipPath>
</defs>
</svg>
