<svg width="40" height="40" viewBox="0 0 40 40" fill="none" xmlns="http://www.w3.org/2000/svg">
<g clip-path="url(#clip0_2125_5928)">
<path d="M5.66547 12.5238L4.23906 9.34142C4.14211 9.12509 3.96898 8.95204 3.75266 8.85501L0.570391 7.4286C-0.190781 7.08743 -0.190781 6.00689 0.570391 5.66571L3.75273 4.23931C3.96906 4.14235 4.14211 3.96923 4.23914 3.7529L5.66547 0.570635C6.00664 -0.190537 7.08719 -0.190537 7.42836 0.570635L8.85477 3.75298C8.95172 3.96931 9.12484 4.14235 9.34117 4.23938L12.5235 5.66579C13.2847 6.00696 13.2847 7.08751 12.5235 7.42868L9.34117 8.85509C9.12484 8.95204 8.9518 9.12517 8.85477 9.34149L7.42836 12.5238C7.08727 13.2849 6.00664 13.2849 5.66547 12.5238Z" fill="white"/>
<path d="M32.5707 18.2866L31.1443 15.1042C31.0474 14.8879 30.8743 14.7149 30.658 14.6179L27.4757 13.1915C26.7145 12.8503 26.7145 11.7698 27.4757 11.4286L30.658 10.0022C30.8743 9.90525 31.0474 9.73212 31.1443 9.5158L32.5707 6.33345C32.9119 5.57228 33.9925 5.57228 34.3336 6.33345L35.76 9.5158C35.857 9.73212 36.0301 9.90517 36.2464 10.0022L39.4287 11.4286C40.1899 11.7698 40.1899 12.8503 39.4287 13.1915L36.2464 14.6179C36.03 14.7149 35.857 14.888 35.76 15.1042L34.3336 18.2866C33.9925 19.0477 32.9118 19.0477 32.5707 18.2866Z" fill="white"/>
<path d="M30.784 24.0927H24.136C23.7812 24.0927 23.4682 24.3101 23.3659 24.6279L21.583 30.1636C21.4276 30.6462 21.8141 31.1323 22.3531 31.1323H32.6183C33.1601 31.1323 33.5469 30.6417 33.3866 30.1579L31.5521 24.6222C31.448 24.3073 31.1365 24.0927 30.784 24.0927Z" fill="white"/>
<path d="M15.7116 24.0927H9.06326C8.70818 24.0927 8.39514 24.3104 8.29303 24.6283L6.51404 30.164C6.35896 30.6465 6.74537 31.1322 7.28428 31.1322H17.5554C18.0976 31.1322 18.4845 30.6408 18.3233 30.1568L16.4795 24.6211C16.3748 24.3068 16.0637 24.0927 15.7116 24.0927Z" fill="white"/>
<path d="M15.8296 15.7213L14.0507 21.257C13.8956 21.7395 14.2821 22.2253 14.8209 22.2253H25.0818C25.6236 22.2253 26.0104 21.7346 25.85 21.2508L24.0156 15.7151C23.9113 15.4003 23.5999 15.1857 23.2474 15.1857H16.5998C16.2447 15.1857 15.9318 15.4033 15.8296 15.7213Z" fill="white"/>
<path d="M37.3601 32.9605H30.7126C30.3575 32.9605 30.0445 33.1782 29.9424 33.4961L28.1635 39.0318C28.0084 39.5143 28.3949 40 28.9337 40H39.1945C39.7363 40 40.1231 39.5094 39.9627 39.0256L38.1283 33.4899C38.024 33.1751 37.7126 32.9605 37.3601 32.9605Z" fill="white"/>
<path d="M9.2307 32.9605H2.5832C2.22812 32.9605 1.91507 33.1782 1.81296 33.4961L0.0340579 39.0318C-0.12102 39.5143 0.265464 40 0.804292 40H11.0652C11.6069 40 11.9937 39.5094 11.8334 39.0256L9.9989 33.4899C9.8946 33.1751 9.5832 32.9605 9.2307 32.9605Z" fill="white"/>
<path d="M23.2474 32.9605H16.5989C16.2443 32.9605 15.9314 33.1777 15.8289 33.495L14.0407 39.0307C13.8848 39.5135 14.2713 40 14.8107 40H25.0818C25.6236 40 26.0104 39.5094 25.85 39.0256L24.0156 33.4899C23.9113 33.1751 23.5999 32.9605 23.2474 32.9605Z" fill="white"/>
</g>
<defs>
<clipPath id="clip0_2125_5928">
<rect width="40" height="40" fill="white"/>
</clipPath>
</defs>
</svg>
