<svg width="40" height="40" viewBox="0 0 40 40" fill="none" xmlns="http://www.w3.org/2000/svg">
<path d="M13.4316 11.4706L10.8265 14.0137C10.5992 14.2354 10.4712 14.5395 10.4712 14.8569V26.454C10.4712 26.7635 10.5929 27.0605 10.8101 27.281L13.2892 29.7979C13.5106 30.0227 13.8131 30.1494 14.1287 30.1494H25.7458C26.0534 30.1494 26.3488 30.0291 26.5689 29.8142L29.1741 27.2712C29.4013 27.0494 29.5294 26.7454 29.5294 26.4279V14.8308C29.5294 14.5213 29.4077 14.2243 29.1905 14.0038L26.7114 11.487C26.4899 11.2621 26.1875 11.1355 25.8718 11.1355H14.2548C13.9472 11.1354 13.6517 11.2557 13.4316 11.4706Z" fill="white"/>
<path d="M1.42188 7.36293L9.01463 12.1912L11.6154 9.65245L6.87882 2.03622L1.42188 7.36293Z" fill="white"/>
<path d="M38.6028 7.09497L33.4082 2.02423L28.5361 9.67774L30.9853 12.1642L38.6028 7.09497Z" fill="white"/>
<path d="M39.3514 9.68317L32.0986 14.5097V26.7565L39.3514 31.3686V9.68317Z" fill="white"/>
<path d="M26.1978 8.56582L30.8328 1.28479H9.4375L13.9656 8.56582H26.1978Z" fill="white"/>
<path d="M0.648438 31.6017L7.90133 26.7752V14.5283L0.648438 9.91617V31.6017Z" fill="white"/>
<path d="M38.5782 33.9219L30.9855 29.0936L28.3848 31.6323L33.1214 39.2486L38.5782 33.9219Z" fill="white"/>
<path d="M26.0346 32.719H13.8024L9.16748 40H30.5627L26.0346 32.719Z" fill="white"/>
<path d="M11.4642 31.6071L9.01505 29.1206L1.39746 34.1898L6.59219 39.2605L11.4642 31.6071Z" fill="white"/>
</svg>
