<svg width="40" height="40" viewBox="0 0 40 40" fill="none" xmlns="http://www.w3.org/2000/svg">
<g clip-path="url(#clip0_2125_5906)">
<path d="M18.16 25.1774L14.4458 20.6308L10.8677 25.0527L14.5822 29.6483L18.16 25.1774Z" fill="white"/>
<path d="M30.061 6.11257C30.061 5.61856 29.659 5.21661 29.1651 5.21661H10.8395C10.3455 5.21661 9.9436 5.61856 9.9436 6.11257V7.95457H23.9065C25.5665 7.95457 26.9171 9.30515 26.9171 10.9653V35.1846H29.165C29.659 35.1846 30.0609 34.7827 30.0609 34.2888V31.4968C30.0586 31.4673 30.0564 31.4377 30.0564 31.4076C30.0564 31.3775 30.0586 31.348 30.0609 31.3185V6.11257H30.061Z" fill="white"/>
<path d="M34.6489 30.2353C35.1429 30.2353 35.5449 29.8334 35.5449 29.3394V0.895876C35.5449 0.401944 35.1429 0 34.6489 0H16.3234C15.8294 0 15.4275 0.401944 15.4275 0.895876V2.87199H29.165C30.9519 2.87199 32.4055 4.32573 32.4055 6.11256V30.2353H34.6489Z" fill="white"/>
<path d="M23.5596 40C24.119 40 24.5725 39.5465 24.5725 38.9871V11.3122C24.5725 10.7528 24.119 10.2993 23.5596 10.2993H5.46803C4.9086 10.2993 4.45508 10.7528 4.45508 11.3122V38.9871C4.45508 39.5466 4.9086 40.0001 5.46803 40.0001H23.5596V40ZM21.9144 36.0841C21.9144 36.8125 21.3239 37.403 20.5955 37.403C19.8671 37.403 19.2767 36.8125 19.2767 36.0841C19.2767 35.3557 19.8671 34.7653 20.5955 34.7653C21.3239 34.7653 21.9144 35.3557 21.9144 36.0841ZM14.4388 17.6002H14.4416C14.7934 17.6002 15.1267 17.7582 15.3495 18.0308L20.5756 24.4281C20.9253 24.8562 20.9285 25.4705 20.583 25.9023L15.5023 32.2514C15.2804 32.5286 14.9449 32.6904 14.5898 32.6912H14.5869C14.2329 32.6912 13.8978 32.5312 13.6752 32.2558L8.44834 25.7892C8.10071 25.3592 8.10087 24.7446 8.44873 24.3148L13.5303 18.0351C13.7522 17.7607 14.086 17.601 14.4388 17.6002ZM8.77463 13.0058C9.50303 13.0058 10.0935 13.5962 10.0935 14.3246C10.0935 15.053 9.50303 15.6435 8.77463 15.6435C8.04624 15.6435 7.45579 15.053 7.45579 14.3246C7.45579 13.5962 8.04624 13.0058 8.77463 13.0058Z" fill="white"/>
</g>
<defs>
<clipPath id="clip0_2125_5906">
<rect width="40" height="40" fill="white"/>
</clipPath>
</defs>
</svg>
